<?xml version="1.0" standalone="no"?>
<!DOCTYPE svg PUBLIC "-//W3C//DTD SVG 20010904//EN"
 "http://www.w3.org/TR/2001/REC-SVG-20010904/DTD/svg10.dtd">
<svg version="1.0" xmlns="http://www.w3.org/2000/svg"
 width="460.000000pt" height="460.000000pt" viewBox="0 0 460.000000 460.000000"
 preserveAspectRatio="xMidYMid meet">
<metadata>
Created by potrace 1.14, written by Peter Selinger 2001-2017
</metadata>
<g transform="translate(0.000000,460.000000) scale(0.100000,-0.100000)"
fill="#000000" stroke="none">
<path d="M0 2300 l0 -2300 2300 0 2300 0 0 2300 0 2300 -1512 -1 c-832 -1
-1495 -5 -1473 -9 22 -5 94 -13 160 -20 66 -6 163 -19 215 -28 l95 -17 11 -70
c12 -73 7 -88 -25 -78 -9 2 -4 -3 11 -11 37 -22 47 -67 53 -251 3 -66 7 -138
10 -160 7 -63 -4 -117 -23 -113 -9 2 -18 12 -20 22 -2 11 -13 28 -24 40 -11
12 -26 33 -34 48 -8 15 -20 31 -28 35 -8 4 -34 27 -58 49 -85 80 -224 166
-328 203 -188 68 -445 68 -599 0 -61 -26 -69 -24 -77 19 -4 20 -11 46 -17 57
-15 28 -46 168 -40 178 2 4 0 13 -5 20 -5 7 -15 29 -21 50 l-13 37 -429 0
-429 0 0 -2300z m1460 1936 c101 -19 216 -58 285 -99 75 -45 107 -67 160 -111
65 -56 108 -101 143 -152 28 -41 28 -50 0 -58 -17 -4 -28 0 -41 17 -153 186
-332 292 -562 333 -113 20 -161 18 -256 -12 -46 -14 -95 -28 -109 -31 -13 -4
-31 -12 -38 -20 -17 -16 -52 -17 -52 0 0 6 -3 22 -6 34 -5 17 2 25 43 45 119
60 286 80 433 54z m2007 -472 c-3 -3 -12 -4 -19 -1 -8 3 -5 6 6 6 11 1 17 -2
13 -5z m-2004 -355 c3 -11 0 -19 -8 -19 -7 0 -19 -10 -27 -22 -14 -21 -17 -22
-42 -9 -28 15 -31 41 -7 49 8 3 11 0 7 -6 -4 -6 3 -16 14 -22 13 -7 20 -7 20
0 0 5 -6 10 -13 10 -15 0 -19 32 -5 41 17 11 56 -3 61 -22z m27 -21 c0 -7 -7
-22 -16 -33 -13 -17 -16 -18 -24 -5 -15 23 -12 30 10 30 11 0 20 5 20 10 0 6
2 10 5 10 3 0 5 -6 5 -12z m-35 -68 c3 -5 -3 -10 -15 -10 -12 0 -18 5 -15 10
3 6 10 10 15 10 5 0 12 -4 15 -10z m90 0 c3 -6 -1 -7 -9 -4 -18 7 -21 14 -7
14 6 0 13 -4 16 -10z m85 -5 c0 -37 -23 -67 -75 -96 -43 -24 -54 -35 -50 -49
4 -13 -1 -19 -21 -24 -27 -7 -50 3 -26 11 19 7 14 23 -8 23 -11 0 -19 -6 -17
-12 1 -7 -9 -14 -22 -16 -16 -3 -22 0 -19 10 6 17 -34 48 -64 48 -21 0 -20 -2
10 -22 22 -14 29 -23 22 -28 -7 -4 -9 -16 -6 -28 7 -20 4 -21 -53 -19 -59 1
-59 1 -71 38 -7 21 -10 45 -6 55 4 10 1 21 -6 26 -8 5 3 6 26 2 38 -7 39 -7
20 13 -11 11 -26 17 -34 15 -13 -4 -13 -3 1 12 8 9 30 18 48 21 28 3 35 -1 49
-26 11 -18 25 -29 40 -29 13 0 22 -6 22 -16 0 -9 6 -14 13 -11 9 3 13 -3 11
-22 -1 -14 1 -18 3 -8 4 15 12 18 39 15 29 -3 33 -1 28 14 -3 12 1 20 13 24
62 21 73 30 73 55 0 32 2 34 34 35 16 1 26 -3 26 -11z m241 -129 l50 -51 -38
-5 c-21 -3 -45 -3 -53 1 -8 4 -40 3 -70 -1 -30 -4 -85 -6 -123 -5 -37 1 -70
-1 -73 -6 -11 -19 -25 -9 -14 10 14 27 13 34 -6 27 -12 -5 -14 -1 -8 17 4 12
11 24 16 25 4 2 15 10 22 18 8 8 21 14 28 14 10 0 9 -3 -2 -10 -12 -8 -9 -10
13 -10 20 0 27 5 27 20 0 11 4 20 8 20 4 0 13 14 19 30 l11 30 71 -37 c39 -20
94 -60 122 -87z m828 -8 c1 -10 -3 -18 -9 -18 -5 0 -10 19 -9 43 1 36 2 38 9
17 4 -14 8 -33 9 -42z m28 0 c-3 -8 -6 -5 -6 6 -1 11 2 17 5 13 3 -3 4 -12 1
-19z m-32 -28 c3 5 14 10 23 9 12 0 13 -2 3 -6 -11 -4 -11 -7 0 -14 7 -4 10
-11 7 -14 -10 -11 -61 9 -67 26 -3 12 -2 12 11 1 11 -9 18 -10 23 -2z m852
-66 c-3 -3 -12 -4 -19 -1 -8 3 -5 6 6 6 11 1 17 -2 13 -5z m-919 -58 c15 -5
24 -3 28 8 8 20 24 21 24 1 0 -9 9 -15 24 -15 14 0 38 -11 54 -25 17 -14 39
-25 50 -25 11 0 32 -13 45 -30 16 -19 27 -25 30 -17 4 9 6 9 6 0 1 -19 -18
-26 -35 -12 -12 10 -17 8 -28 -7 -11 -14 -24 -18 -62 -15 -26 1 -57 9 -68 16
-12 7 -34 16 -50 19 -23 6 -27 11 -23 32 3 16 -2 29 -12 37 -9 7 -17 23 -19
37 -1 14 1 20 5 14 5 -6 18 -14 31 -18z m872 14 c0 -5 -4 -10 -10 -10 -5 0
-10 5 -10 10 0 6 5 10 10 10 6 0 10 -4 10 -10z m57 -29 c16 12 17 12 6 -1 -6
-9 -13 -29 -16 -45 -3 -25 -9 -31 -38 -35 -19 -3 -44 -4 -56 -2 l-23 4 25 19
c13 11 27 30 31 42 9 31 27 40 41 20 11 -14 15 -14 30 -2z m-1057 0 c0 -5 -8
-12 -17 -15 -10 -2 -1 -2 20 1 24 3 37 1 37 -6 0 -6 9 -11 20 -11 11 0 20 -4
20 -10 0 -5 -4 -10 -10 -10 -17 0 -11 -21 13 -40 18 -15 20 -21 9 -32 -11 -11
-14 -10 -22 2 -8 13 -10 12 -10 -4 0 -15 -6 -17 -37 -14 -23 3 -47 -1 -60 -9
-23 -15 -63 -10 -63 8 0 14 -41 1 -65 -22 -27 -24 -46 -12 -33 21 7 20 11 22
19 10 8 -11 9 -9 4 9 -6 21 -5 23 22 17 22 -5 34 -2 44 10 8 10 9 15 2 11 -6
-4 -15 -3 -18 3 -5 8 -11 7 -21 -1 -8 -6 -17 -9 -21 -6 -10 11 14 32 54 46 21
8 40 17 43 20 6 7 51 29 63 30 4 1 7 -3 7 -8z m1034 -111 l41 -1 -36 -17 c-34
-16 -35 -18 -22 -42 7 -14 13 -19 13 -12 0 6 7 12 17 12 14 0 14 -2 1 -17 -18
-23 -13 -49 13 -56 26 -7 26 -62 0 -79 -15 -9 -18 -19 -14 -41 5 -23 2 -29
-16 -34 -15 -4 -19 -8 -11 -13 25 -15 -3 -30 -56 -30 -48 0 -56 3 -66 24 -8
20 -7 32 6 60 9 20 21 36 26 36 6 0 10 5 10 12 0 6 -3 8 -7 5 -9 -9 -33 12
-33 29 0 18 23 14 32 -6 5 -12 7 -11 7 4 1 19 1 19 14 1 10 -12 16 -14 21 -7
4 7 -3 17 -19 24 -19 9 -24 16 -19 32 4 12 12 24 18 29 8 5 8 9 0 15 -14 10
-34 69 -26 77 4 4 20 4 36 1 16 -3 47 -6 70 -6z m46 -35 c0 -16 -17 -19 -46
-8 -16 6 -16 7 2 14 30 12 44 10 44 -6z m-1305 -35 c-5 -8 -11 -8 -17 -2 -6 6
-7 16 -3 22 5 8 11 8 17 2 6 -6 7 -16 3 -22z m-28 -32 c-3 -8 -6 -5 -6 6 -1
11 2 17 5 13 3 -3 4 -12 1 -19z m789 -3 c41 -14 84 -25 97 -25 35 0 85 -36
101 -73 33 -81 32 -82 -38 -27 -36 29 -69 58 -74 65 -12 22 -76 29 -91 11 -12
-14 -16 -14 -42 5 -51 36 -139 2 -139 -54 0 -23 -2 -23 -56 -16 -62 8 -84 4
-84 -18 0 -8 4 -12 9 -8 5 3 13 0 16 -5 5 -8 13 -6 26 6 18 16 19 16 19 -10 0
-16 -7 -29 -17 -33 -10 -4 -20 -10 -23 -14 -9 -13 -27 4 -41 38 -14 31 -14 31
-51 19 -33 -12 -39 -11 -53 4 -8 9 -13 19 -10 22 3 3 -3 12 -13 21 -29 27
-109 24 -170 -5 -30 -14 -62 -24 -73 -21 -35 9 -88 -7 -131 -42 -119 -94 -165
-140 -198 -195 -14 -23 -35 -54 -47 -70 -37 -46 -28 -144 19 -211 9 -13 8 -20
-4 -32 -16 -17 -38 -5 -38 20 0 7 -6 10 -14 7 -19 -7 -25 18 -22 91 2 61 6 70
62 160 58 92 81 140 87 179 6 39 40 86 62 86 6 0 28 9 50 20 22 11 46 20 55
20 9 0 52 18 96 40 55 28 90 40 114 38 19 -1 58 1 85 6 28 4 69 3 92 -2 24 -6
40 -6 37 -1 -3 5 19 10 48 10 100 3 149 6 155 13 16 15 129 5 199 -19z m534 5
c0 -5 -4 -10 -10 -10 -5 0 -10 5 -10 10 0 6 5 10 10 10 6 0 10 -4 10 -10z
m-473 -96 c-3 -3 -12 -4 -19 -1 -8 3 -5 6 6 6 11 1 17 -2 13 -5z m385 -176
c-9 -9 -15 -9 -24 0 -9 9 -7 12 12 12 19 0 21 -3 12 -12z m61 -18 c4 -15 0
-20 -13 -20 -22 0 -35 -17 -35 -45 0 -12 -8 -21 -20 -23 -11 -3 -23 -9 -27
-16 -5 -6 -8 -2 -8 11 0 17 -5 21 -22 18 -21 -4 -22 -3 -5 9 9 7 17 22 18 32
0 11 3 13 6 7 7 -19 33 -15 33 5 0 16 30 38 56 41 7 0 14 -8 17 -19z m-667
-13 c26 -15 89 -87 76 -87 -5 0 -20 8 -33 18 -27 20 -85 30 -75 13 4 -7 1 -8
-8 -5 -9 3 -16 1 -16 -4 0 -6 -9 -13 -19 -17 -23 -7 -81 -117 -81 -152 0 -13
-12 -59 -27 -103 l-26 -79 18 -66 c12 -46 28 -77 51 -102 19 -20 31 -39 28
-42 -4 -3 -9 0 -11 7 -3 6 -16 12 -29 12 -16 0 -28 8 -34 23 -8 20 -9 20 -10
2 -1 -18 -3 -17 -21 8 -11 15 -29 27 -39 27 -10 0 -21 4 -24 9 -4 5 4 7 16 4
l23 -5 -23 21 c-13 11 -30 17 -37 14 -8 -3 -15 0 -15 6 0 6 5 11 11 11 5 0 7
5 3 11 -5 8 -9 8 -14 -1 -6 -10 -15 -10 -40 -1 -25 8 -36 8 -48 -1 -14 -12
-62 -17 -160 -18 -33 0 -45 -9 -33 -24 13 -15 4 -26 -21 -26 -26 0 -22 -20 5
-21 21 -1 21 -1 -3 -8 -21 -6 -16 -9 29 -15 58 -9 121 -53 121 -86 0 -30 -139
-55 -156 -29 -4 7 -9 7 -13 1 -11 -18 -70 -42 -76 -32 -3 6 -14 10 -24 10 -14
0 -18 10 -20 47 -2 51 -17 87 -32 78 -5 -4 -9 -1 -9 4 0 6 5 11 11 11 5 0 7 5
4 10 -3 6 -3 16 2 23 13 20 12 36 -3 48 -8 6 -14 18 -14 26 0 12 6 11 33 -5
17 -11 38 -17 45 -15 17 7 5 23 -18 23 -10 0 -20 6 -23 14 -6 16 9 21 93 32
30 4 69 14 85 23 56 31 173 109 180 121 6 9 10 9 16 -1 8 -12 10 -12 18 0 6
10 10 10 16 1 9 -15 6 -17 -34 -23 -68 -11 -118 -92 -72 -117 26 -14 102 -6
111 11 7 12 23 87 24 113 1 5 8 11 16 13 12 4 12 3 2 -5 -11 -7 -11 -10 2 -15
9 -4 16 -2 16 3 0 6 9 10 19 10 11 0 22 6 25 13 5 10 7 10 12 0 10 -22 24 -14
24 12 0 14 3 25 8 25 4 0 15 21 26 48 77 194 111 234 172 199z m489 -72 c10
-41 15 -78 12 -82 -4 -3 -7 1 -7 10 0 9 -6 36 -14 59 -21 67 -28 100 -18 94 5
-3 18 -40 27 -81z m42 53 c-3 -8 -6 -5 -6 6 -1 11 2 17 5 13 3 -3 4 -12 1 -19z
m-343 -192 c67 -71 122 -166 96 -166 -5 0 -10 -26 -12 -57 -3 -58 -3 -58 -11
-18 -19 105 -29 131 -63 164 -19 20 -49 65 -66 101 -17 36 -35 67 -40 68 -4 2
-8 9 -7 15 0 7 14 -6 32 -27 18 -22 49 -58 71 -80z m236 -57 c25 -26 27 -31
12 -35 -9 -3 -27 -10 -39 -14 -25 -10 -36 0 -27 23 3 8 1 18 -5 22 -6 3 -11
15 -11 26 0 27 30 18 70 -22z m93 -4 c-7 -21 -31 -25 -35 -7 -4 12 2 17 18 18
15 1 21 -3 17 -11z m-483 -96 c13 -51 18 -85 12 -91 -6 -6 -13 7 -20 34 -14
58 -25 138 -19 138 3 0 15 -37 27 -81z m516 72 c-3 -5 1 -25 9 -45 18 -42 18
-47 4 -43 -23 5 -20 -23 4 -32 28 -11 41 -48 24 -66 -16 -15 -67 -28 -67 -17
0 5 -21 -1 -46 -14 -53 -27 -64 -24 -64 16 0 25 13 44 31 45 3 0 23 15 43 33
l38 33 -22 19 c-15 13 -20 25 -15 37 6 17 7 17 21 -1 8 -11 14 -26 14 -33 0
-7 7 -13 15 -13 8 0 15 7 15 15 0 8 -4 15 -10 15 -11 0 -14 43 -3 53 9 10 15
9 9 -2z m-1516 -101 c-5 -22 -8 -27 -9 -13 -1 21 9 56 14 51 2 -2 0 -19 -5
-38z m1116 -182 c-8 -4 -22 -5 -32 -1 -16 6 -16 7 1 19 14 11 22 11 32 2 12
-10 12 -13 -1 -20z m-271 -68 c3 -5 1 -10 -4 -10 -6 0 -11 5 -11 10 0 6 2 10
4 10 3 0 8 -4 11 -10z m209 -85 c-4 -8 -10 -15 -15 -15 -18 0 -9 -18 12 -23
13 -4 18 -10 14 -18 -5 -7 -3 -10 6 -7 8 3 14 17 14 31 -1 23 1 24 15 13 26
-22 66 -27 109 -11 50 17 85 10 55 -12 -10 -7 -15 -13 -12 -13 4 0 -7 -14 -24
-31 -27 -27 -34 -29 -55 -20 -13 6 -39 11 -58 11 -19 0 -46 6 -61 12 -22 10
-28 10 -32 0 -2 -6 -10 -12 -19 -12 -10 0 -12 -6 -8 -20 4 -14 1 -22 -10 -26
-23 -9 -25 -3 -14 43 5 27 22 56 44 78 39 38 47 43 39 20z m377 -16 c10 -36
10 -119 0 -119 -13 0 -24 47 -25 102 -1 50 13 60 25 17z m-85 -38 c-3 -4 10
-23 28 -43 47 -51 76 -94 76 -111 0 -20 -18 -26 -99 -33 l-68 -7 -33 54 c-18
30 -38 57 -44 61 -8 6 -8 8 1 8 6 0 14 9 18 19 11 36 47 33 87 -6 21 -21 38
-41 38 -46 0 -5 7 -15 15 -23 8 -9 15 -13 15 -9 0 14 -32 81 -47 97 -12 13
-13 21 -4 31 6 8 7 18 3 22 -4 5 -1 5 6 1 7 -4 10 -11 8 -15z m-140 -109 c18
-20 35 -52 39 -69 5 -27 11 -33 33 -35 59 -3 99 -1 110 6 7 4 12 2 12 -3 0 -6
9 -11 20 -11 24 0 47 -70 31 -98 -6 -9 -11 -13 -11 -9 0 4 -9 3 -20 -3 -17 -9
-20 -8 -20 10 0 24 -8 25 -31 4 -16 -14 -18 -14 -24 6 l-7 22 -24 -23 c-20
-19 -27 -21 -34 -10 -6 11 -9 8 -12 -10 -2 -19 -10 -25 -34 -27 -24 -2 -33 2
-42 23 -7 14 -12 32 -12 40 0 8 -5 15 -11 15 -8 0 -8 4 0 13 8 11 5 13 -17 9
-37 -5 -46 15 -76 160 -5 22 -2 28 22 36 37 12 69 -1 108 -46z m-296 -23 c0
-6 -4 -7 -10 -4 -5 3 -10 11 -10 16 0 6 5 7 10 4 6 -3 10 -11 10 -16z m157
-61 c19 -57 20 -64 6 -75 -9 -7 -20 -14 -25 -15 -5 -2 5 -29 23 -61 30 -57 31
-68 6 -73 -7 -2 -21 -5 -33 -8 -18 -4 -23 3 -33 44 -7 27 -10 58 -6 70 4 13 1
22 -8 26 -9 3 -19 17 -23 32 -7 24 -9 22 -14 -21 -3 -26 -9 -47 -15 -47 -5 0
-20 20 -33 43 -12 23 -25 41 -29 39 -7 -4 -21 24 -22 44 -1 18 59 23 75 7 8
-8 14 -19 14 -24 0 -5 5 -9 10 -9 6 0 10 10 10 22 0 26 37 68 60 68 11 0 23
-20 37 -62z m-738 -45 c16 -40 33 -89 37 -108 3 -19 19 -55 35 -80 48 -76 3
-52 -49 26 -40 59 -61 118 -68 194 -8 74 3 66 45 -32z m537 -8 c3 -14 9 -25
13 -25 11 0 32 -50 26 -61 -4 -5 -17 -9 -29 -9 -19 0 -26 8 -36 45 -14 48 -29
68 -31 38 0 -11 -3 -13 -6 -5 -7 17 15 42 38 42 12 0 21 -10 25 -25z m-66 -54
c0 -9 7 -28 14 -43 10 -18 11 -28 4 -28 -24 0 -61 69 -52 95 8 20 34 1 34 -24z
m355 6 c23 -36 31 -87 14 -98 -25 -16 -40 -10 -50 21 -6 17 -14 30 -19 30 -11
0 -20 39 -13 56 8 22 51 17 68 -9z m-178 -59 c6 -7 13 -32 17 -55 l6 -43 -35
0 c-22 0 -34 4 -30 10 4 6 -1 24 -9 42 -12 23 -13 34 -5 44 14 17 43 18 56 2z
m-228 -24 c6 -15 9 -29 6 -33 -8 -7 -25 21 -19 31 3 4 0 8 -5 8 -6 0 -11 5
-11 10 0 19 17 10 29 -16z m711 -16 c0 -16 -3 -19 -11 -11 -6 6 -8 16 -5 22
11 17 16 13 16 -11z m-760 -43 c-15 -18 -46 -8 -47 16 -2 18 0 19 14 7 14 -11
15 -10 9 12 l-7 25 21 -24 c15 -17 17 -27 10 -36z m178 47 c7 -5 15 -26 19
-46 6 -37 5 -38 -16 -27 -11 7 -21 18 -21 25 0 8 -7 17 -16 20 -13 5 -14 9 -4
21 14 17 20 18 38 7z m-268 -18 c0 -16 -2 -16 -24 -8 -22 8 -20 19 4 21 11 1
20 -4 20 -13z m813 1 c14 -6 15 -10 6 -21 -6 -8 -9 -22 -6 -33 3 -14 0 -17
-13 -14 -14 4 -20 -3 -25 -26 -8 -37 -11 -38 -36 -8 l-19 22 3 -34 c2 -34 1
-35 -43 -44 -25 -5 -49 -13 -54 -18 -6 -5 -23 -9 -39 -9 -17 0 -26 -4 -22 -10
4 -6 21 -8 40 -4 26 4 35 2 44 -13 10 -17 10 -17 11 1 0 12 5 16 15 12 8 -3
15 -1 15 4 0 6 6 10 13 10 7 0 13 -15 14 -34 1 -25 -2 -33 -12 -30 -7 3 -16 1
-20 -5 -3 -6 -1 -11 4 -11 6 0 11 -7 11 -15 0 -8 -4 -15 -10 -15 -5 0 -10 -7
-10 -15 0 -8 -9 -24 -20 -35 -25 -25 -26 -57 -2 -64 29 -8 101 -11 108 -3 4 4
-6 7 -22 7 -29 1 -29 1 -6 13 12 7 20 16 17 19 -3 3 7 3 22 1 15 -3 33 -10 38
-17 6 -6 25 -12 43 -13 29 -2 33 1 30 20 -3 27 10 50 24 41 6 -4 5 -10 -3 -15
-11 -7 -10 -9 5 -9 16 0 17 -2 5 -17 -10 -11 -10 -14 -1 -9 17 10 15 3 -5 -21
-22 -25 -73 -39 -74 -21 0 7 -4 3 -9 -9 -6 -14 -21 -24 -44 -29 -20 -3 -34 -9
-32 -13 3 -5 -248 -7 -278 -2 -5 0 -3 8 4 16 7 8 19 14 28 13 8 -2 17 4 19 12
4 13 3 13 -7 0 -10 -13 -11 -13 -7 0 2 8 11 14 20 12 10 -2 27 6 39 18 16 14
18 20 7 21 -8 0 -2 5 14 11 16 6 27 17 27 28 0 10 8 20 18 23 14 3 12 6 -8 14
-20 8 -26 7 -32 -6 -6 -13 -7 -12 -5 4 1 12 -13 38 -30 60 -18 21 -30 42 -27
47 3 4 1 8 -3 8 -5 0 -17 14 -26 30 -10 17 -15 30 -12 30 3 0 -1 10 -9 22 -26
37 -21 58 15 58 16 0 51 11 76 26 78 43 180 60 236 39z m-613 -69 c-6 -6 -10
-7 -10 -3 0 15 -2 22 -11 39 -6 11 -5 18 4 21 15 5 30 -44 17 -57z m-190 33
c0 -11 -3 -11 -24 -3 -23 9 -20 23 4 17 11 -3 20 -9 20 -14z m113 -29 c3 -11
1 -20 -4 -20 -5 0 -9 2 -9 4 0 2 -3 11 -6 20 -3 9 -2 16 4 16 5 0 12 -9 15
-20z m-63 -10 c0 -16 -26 -40 -44 -40 -12 0 -6 49 7 53 25 11 37 6 37 -13z
m760 -93 c0 -6 7 -18 16 -28 15 -16 15 -20 1 -34 -9 -8 -21 -15 -28 -15 -10 0
-10 -3 -1 -12 17 -17 15 -33 -2 -19 -8 7 -22 11 -32 9 -11 -2 -19 5 -24 22
-11 45 -6 65 15 65 13 0 21 8 23 23 3 19 6 21 18 11 8 -6 14 -16 14 -22z
m-450 -12 c0 -8 -2 -15 -4 -15 -2 0 -6 7 -10 15 -3 8 -1 15 4 15 6 0 10 -7 10
-15z m-460 -81 c0 -21 -4 -33 -10 -29 -5 3 -10 19 -10 36 0 16 5 29 10 29 6 0
10 -16 10 -36z m835 -74 c-3 -5 -16 -10 -28 -10 -18 0 -19 2 -7 10 20 13 43
13 35 0z m45 -16 c0 -2 -7 -4 -15 -4 -8 0 -15 4 -15 10 0 5 7 7 15 4 8 -4 15
-8 15 -10z m-185 -854 c-3 -5 -12 -10 -18 -10 -7 0 -6 4 3 10 19 12 23 12 15
0z"/>
<path d="M1253 3203 c9 -2 23 -2 30 0 6 3 -1 5 -18 5 -16 0 -22 -2 -12 -5z"/>
<path d="M2465 2960 c3 -5 8 -10 11 -10 2 0 4 5 4 10 0 6 -5 10 -11 10 -5 0
-7 -4 -4 -10z"/>
<path d="M2415 2899 c-10 -15 1 -23 20 -15 9 3 13 10 10 16 -8 13 -22 13 -30
-1z"/>
<path d="M2478 2903 c7 -3 16 -2 19 1 4 3 -2 6 -13 5 -11 0 -14 -3 -6 -6z"/>
<path d="M3514 2714 c3 -8 6 -18 6 -20 0 -3 5 -2 10 1 15 9 12 22 -6 29 -12 5
-15 2 -10 -10z"/>
<path d="M2150 1865 c0 -8 2 -15 4 -15 2 0 6 7 10 15 3 8 1 15 -4 15 -6 0 -10
-7 -10 -15z"/>
<path d="M3190 1071 c0 -5 9 -7 20 -4 11 3 20 7 20 9 0 2 -9 4 -20 4 -11 0
-20 -4 -20 -9z"/>
<path d="M3210 870 c8 -5 22 -9 30 -9 10 0 8 3 -5 9 -27 12 -43 12 -25 0z"/>
<path d="M1513 4593 c9 -2 25 -2 35 0 9 3 1 5 -18 5 -19 0 -27 -2 -17 -5z"/>
<path d="M1225 4575 l-30 -14 53 -1 c40 0 52 4 52 15 0 19 -34 18 -75 0z"/>
<path d="M1095 4548 c-16 -6 -39 -14 -50 -19 -19 -9 -19 -9 1 -4 12 3 38 6 58
7 23 1 36 6 36 15 0 15 -3 15 -45 1z"/>
<path d="M1662 4537 c23 -23 66 -39 73 -27 4 6 0 10 -9 10 -8 0 -16 4 -18 9
-1 5 -16 13 -33 17 -28 7 -29 6 -13 -9z"/>
<path d="M1845 4461 c-2 -4 11 -13 30 -19 19 -5 35 -7 35 -3 0 10 -59 30 -65
22z"/>
<path d="M2028 4383 c7 -3 16 -2 19 1 4 3 -2 6 -13 5 -11 0 -14 -3 -6 -6z"/>
</g>
</svg>
